<svg xmlns="http://www.w3.org/2000/svg" viewBox="0 0 800 400">
  <defs>
    <linearGradient id="sea" x1="0%" y1="0%" x2="0%" y2="100%">
      <stop offset="0%" stop-color="#56ccf2"/>
      <stop offset="100%" stop-color="#2f80ed"/>
    </linearGradient>
  </defs>
  <rect width="100%" height="100%" fill="#0b1020"/>
  <g fill="none" stroke="url(#sea)" stroke-width="3">
    <path d="M0 250 Q 50 200 100 250 T 200 250 T 300 250 T 400 250 T 500 250 T 600 250 T 700 250 T 800 250"/>
    <path d="M0 280 Q 60 230 120 280 T 240 280 T 360 280 T 480 280 T 600 280 T 720 280 T 840 280" opacity="0.7"/>
    <path d="M0 310 Q 70 260 140 310 T 280 310 T 420 310 T 560 310 T 700 310 T 840 310" opacity="0.4"/>
  </g>
</svg>

