<svg xmlns="http://www.w3.org/2000/svg" width="1260" height="920" shape-rendering="geometricPrecision"><style> text{font-family: system-ui, sans-serif;} </style><g transform="translate(0,0)"><rect x="0" y="0" width="420" height="460" fill="#f8f9fa" stroke="#e5e7eb"/><image href="art/svg/geometry.svg" x="16" y="16" width="388" height="392" preserveAspectRatio="xMidYMid meet"/><text x="210.0" y="450" text-anchor="middle" font-size="14">geometry</text></g><g transform="translate(420,0)"><rect x="0" y="0" width="420" height="460" fill="#f8f9fa" stroke="#e5e7eb"/><image href="art/svg/mandala.svg" x="16" y="16" width="388" height="392" preserveAspectRatio="xMidYMid meet"/><text x="210.0" y="450" text-anchor="middle" font-size="14">mandala</text></g><g transform="translate(840,0)"><rect x="0" y="0" width="420" height="460" fill="#f8f9fa" stroke="#e5e7eb"/><image href="art/svg/spiro.svg" x="16" y="16" width="388" height="392" preserveAspectRatio="xMidYMid meet"/><text x="210.0" y="450" text-anchor="middle" font-size="14">spiro</text></g><g transform="translate(0,460)"><rect x="0" y="0" width="420" height="460" fill="#f8f9fa" stroke="#e5e7eb"/><image href="art/svg/sunburst.svg" x="16" y="16" width="388" height="392" preserveAspectRatio="xMidYMid meet"/><text x="210.0" y="450" text-anchor="middle" font-size="14">sunburst</text></g><g transform="translate(420,460)"><rect x="0" y="0" width="420" height="460" fill="#f8f9fa" stroke="#e5e7eb"/><image href="art/svg/waves.svg" x="16" y="16" width="388" height="392" preserveAspectRatio="xMidYMid meet"/><text x="210.0" y="450" text-anchor="middle" font-size="14">waves</text></g></svg>